<?xml version="1.0" encoding="UTF-8" standalone="no"?>
<!DOCTYPE svg PUBLIC "-//W3C//DTD SVG 1.1//EN"
 "http://www.w3.org/Graphics/SVG/1.1/DTD/svg11.dtd">
<!-- Generated by graphviz version 2.43.0 (0)
 -->
<!-- Title: %3 Pages: 1 -->
<svg width="1824pt" height="1042pt"
 viewBox="0.00 0.00 1824.30 1042.00" xmlns="http://www.w3.org/2000/svg" xmlns:xlink="http://www.w3.org/1999/xlink">
<g id="graph0" class="graph" transform="scale(1 1) rotate(0) translate(4 1038)">
<title>%3</title>
<polygon fill="white" stroke="transparent" points="-4,4 -4,-1038 1820.3,-1038 1820.3,4 -4,4"/>
<g id="clust1" class="cluster">
<title>cluster&#45;nid&#45;02</title>
<polygon fill="none" stroke="#cccccc" points="37.97,-82 37.97,-148 486.88,-148 486.88,-82 37.97,-82"/>
</g>
<g id="clust2" class="cluster">
<title>cluster&#45;nid&#45;03</title>
<polygon fill="none" stroke="#cccccc" points="37.97,-8 37.97,-74 486.88,-74 486.88,-8 37.97,-8"/>
</g>
<g id="clust5" class="cluster">
<title>cluster&#45;nid&#45;06</title>
<polygon fill="none" stroke="#cccccc" points="8,-161 8,-227 157.15,-227 157.15,-161 8,-161"/>
</g>
<g id="clust6" class="cluster">
<title>cluster&#45;nid&#45;07</title>
<polygon fill="none" stroke="#cccccc" points="1144.62,-949 1144.62,-1015 1519.09,-1015 1519.09,-949 1144.62,-949"/>
</g>
<g id="clust7" class="cluster">
<title>cluster&#45;nid&#45;08</title>
<polygon fill="none" stroke="#cccccc" points="1439.49,-712 1439.49,-778 1808.3,-778 1808.3,-712 1439.49,-712"/>
</g>
<g id="clust8" class="cluster">
<title>cluster&#45;nid&#45;09</title>
<polygon fill="none" stroke="#cccccc" points="1439.49,-365 1439.49,-431 1808.3,-431 1808.3,-365 1439.49,-365"/>
</g>
<g id="clust18" class="cluster">
<title>cluster&#45;nid&#45;12&#45;out</title>
<polygon fill="none" stroke="#cccccc" points="416.88,-867 416.88,-933 486.88,-933 486.88,-867 416.88,-867"/>
</g>
<g id="clust20" class="cluster">
<title>cluster&#45;nid&#45;13&#45;out</title>
<polygon fill="none" stroke="#cccccc" points="357.15,-942 357.15,-1022 546.6,-1022 546.6,-942 357.15,-942"/>
</g>
<g id="clust21" class="cluster">
<title>cluster&#45;nid&#45;14&#45;in</title>
<polygon fill="none" stroke="#cccccc" points="746.94,-156 746.94,-236 929.01,-236 929.01,-156 746.94,-156"/>
</g>
<g id="clust27" class="cluster">
<title>cluster&#45;nid&#45;18&#45;out</title>
<polygon fill="none" stroke="#cccccc" points="408.47,-533 408.47,-599 495.28,-599 495.28,-533 408.47,-533"/>
</g>
<g id="clust29" class="cluster">
<title>cluster&#45;nid&#45;19&#45;out</title>
<polygon fill="none" stroke="#cccccc" points="408.47,-331 408.47,-397 495.28,-397 495.28,-331 408.47,-331"/>
</g>
<g id="clust31" class="cluster">
<title>cluster&#45;nid&#45;1a&#45;out</title>
<polygon fill="none" stroke="#cccccc" points="408.47,-249 408.47,-315 495.28,-315 495.28,-249 408.47,-249"/>
</g>
<g id="clust32" class="cluster">
<title>cluster&#45;nid&#45;1b&#45;in</title>
<polygon fill="none" stroke="#cccccc" points="758.53,-8 758.53,-74 1214.62,-74 1214.62,-8 758.53,-8"/>
</g>
<g id="clust33" class="cluster">
<title>cluster&#45;nid&#45;1b&#45;out</title>
<polygon fill="none" stroke="#cccccc" points="47.57,-777 47.57,-843 531.32,-843 531.32,-777 47.57,-777"/>
</g>
<g id="clust36" class="cluster">
<title>cluster&#45;nid&#45;1d&#45;out</title>
<polygon fill="none" stroke="#cccccc" points="416.88,-671 416.88,-737 486.88,-737 486.88,-671 416.88,-671"/>
</g>
<g id="clust37" class="cluster">
<title>cluster&#45;nid&#45;1e&#45;in</title>
<polygon fill="none" stroke="#cccccc" points="396.8,-161 396.8,-227 506.95,-227 506.95,-161 396.8,-161"/>
</g>
<g id="clust41" class="cluster">
<title>cluster&#45;nid&#45;21&#45;in</title>
<polygon fill="none" stroke="#cccccc" points="746.6,-82 746.6,-148 929.35,-148 929.35,-82 746.6,-82"/>
</g>
<g id="clust43" class="cluster">
<title>cluster&#45;nid&#45;22</title>
<polygon fill="none" stroke="#cccccc" points="749.35,-244 749.35,-552 1229.88,-552 1229.88,-244 749.35,-244"/>
</g>
<g id="clust44" class="cluster">
<title>cluster&#45;nid&#45;23</title>
<polygon fill="none" stroke="#cccccc" points="749.35,-560 749.35,-930 1229.88,-930 1229.88,-560 749.35,-560"/>
</g>
<g id="clust45" class="cluster">
<title>cluster&#45;nid&#45;24</title>
<polygon fill="none" stroke="#cccccc" points="776.31,-938 776.31,-1026 899.65,-1026 899.65,-938 776.31,-938"/>
</g>
<!-- nid&#45;02 -->
<g id="node1" class="node">
<title>nid&#45;02</title>
<ellipse fill="none" stroke="blue" cx="82.57" cy="-115" rx="36.71" ry="25.41"/>
<text text-anchor="middle" x="82.57" y="-117.8" font-family="Times,serif" font-size="14.00">0x02</text>
<text text-anchor="middle" x="82.57" y="-103.8" font-family="Times,serif" font-size="14.00">Stereo</text>
</g>
<!-- nid&#45;02&#45;ampout -->
<g id="node2" class="node">
<title>nid&#45;02&#45;ampout</title>
<polygon fill="none" stroke="#0000ff" points="478.88,-115 438.38,-133 438.38,-97 478.88,-115"/>
</g>
<!-- nid&#45;02&#45;&gt;nid&#45;02&#45;ampout -->
<g id="edge1" class="edge">
<title>nid&#45;02&#45;&gt;nid&#45;02&#45;ampout</title>
<path fill="none" stroke="#0000ff" d="M119.46,-115C196.58,-115 375.75,-115 432.97,-115"/>
<polygon fill="#0000ff" stroke="#0000ff" points="433.12,-116.75 438.12,-115 433.12,-113.25 433.12,-116.75"/>
</g>
<!-- nid&#45;14&#45;in -->
<g id="node17" class="node">
<title>nid&#45;14&#45;in</title>
<polygon fill="none" stroke="green" points="921.05,-228 754.91,-228 754.91,-164 921.05,-164 921.05,-228"/>
<text text-anchor="middle" x="837.98" y="-212.8" font-family="Times,serif" font-size="14.00">0x14</text>
<text text-anchor="middle" x="837.98" y="-198.8" font-family="Times,serif" font-size="14.00">[Fixed] Speaker at Int N/A</text>
<text text-anchor="middle" x="837.98" y="-184.8" font-family="Times,serif" font-size="14.00">Stereo</text>
<text text-anchor="middle" x="837.98" y="-170.8" font-family="Times,serif" font-size="14.00">OUT EAPD Detect</text>
</g>
<!-- nid&#45;02&#45;ampout&#45;&gt;nid&#45;14&#45;in -->
<g id="edge9" class="edge">
<title>nid&#45;02&#45;ampout&#45;&gt;nid&#45;14&#45;in</title>
<path fill="none" stroke="#333333" d="M470.63,-118.74C518.53,-128.85 653,-157.2 744.98,-176.6"/>
<polygon fill="#333333" stroke="#333333" points="744.35,-180.04 754.86,-178.68 745.79,-173.19 744.35,-180.04"/>
</g>
<!-- nid&#45;1b&#45;in -->
<g id="node21" class="node">
<title>nid&#45;1b&#45;in</title>
<polygon fill="none" stroke="green" points="909.37,-66 766.59,-66 766.59,-16 909.37,-16 909.37,-66"/>
<text text-anchor="middle" x="837.98" y="-50.8" font-family="Times,serif" font-size="14.00">0x1b</text>
<text text-anchor="middle" x="837.98" y="-36.8" font-family="Times,serif" font-size="14.00">Stereo</text>
<text text-anchor="middle" x="837.98" y="-22.8" font-family="Times,serif" font-size="14.00">IN OUT EAPD Detect</text>
</g>
<!-- nid&#45;02&#45;ampout&#45;&gt;nid&#45;1b&#45;in -->
<g id="edge12" class="edge">
<title>nid&#45;02&#45;ampout&#45;&gt;nid&#45;1b&#45;in</title>
<path fill="none" stroke="gray" stroke-dasharray="5,2" d="M471.14,-111.48C521.51,-101.78 664.69,-74.19 756.27,-56.55"/>
<polygon fill="gray" stroke="gray" points="757.18,-59.94 766.34,-54.61 755.86,-53.06 757.18,-59.94"/>
</g>
<!-- nid&#45;21&#45;in -->
<g id="node27" class="node">
<title>nid&#45;21&#45;in</title>
<polygon fill="none" stroke="green" points="921.22,-140 754.73,-140 754.73,-90 921.22,-90 921.22,-140"/>
<text text-anchor="middle" x="837.98" y="-124.8" font-family="Times,serif" font-size="14.00">0x21</text>
<text text-anchor="middle" x="837.98" y="-110.8" font-family="Times,serif" font-size="14.00">[Jack] HP Out at Ext Right</text>
<text text-anchor="middle" x="837.98" y="-96.8" font-family="Times,serif" font-size="14.00">Stereo</text>
</g>
<!-- nid&#45;02&#45;ampout&#45;&gt;nid&#45;21&#45;in -->
<g id="edge15" class="edge">
<title>nid&#45;02&#45;ampout&#45;&gt;nid&#45;21&#45;in</title>
<path fill="none" stroke="gray" stroke-dasharray="5,2" d="M478.97,-115C532.57,-115 657.32,-115 744.39,-115"/>
<polygon fill="gray" stroke="gray" points="744.55,-118.5 754.55,-115 744.55,-111.5 744.55,-118.5"/>
</g>
<!-- nid&#45;03 -->
<g id="node3" class="node">
<title>nid&#45;03</title>
<ellipse fill="none" stroke="blue" cx="82.57" cy="-41" rx="36.71" ry="25.41"/>
<text text-anchor="middle" x="82.57" y="-43.8" font-family="Times,serif" font-size="14.00">0x03</text>
<text text-anchor="middle" x="82.57" y="-29.8" font-family="Times,serif" font-size="14.00">Stereo</text>
</g>
<!-- nid&#45;03&#45;ampout -->
<g id="node4" class="node">
<title>nid&#45;03&#45;ampout</title>
<polygon fill="none" stroke="#0000ff" points="478.88,-41 438.38,-59 438.38,-23 478.88,-41"/>
</g>
<!-- nid&#45;03&#45;&gt;nid&#45;03&#45;ampout -->
<g id="edge2" class="edge">
<title>nid&#45;03&#45;&gt;nid&#45;03&#45;ampout</title>
<path fill="none" stroke="#0000ff" d="M119.46,-41C196.58,-41 375.75,-41 432.97,-41"/>
<polygon fill="#0000ff" stroke="#0000ff" points="433.12,-42.75 438.12,-41 433.12,-39.25 433.12,-42.75"/>
</g>
<!-- nid&#45;03&#45;ampout&#45;&gt;nid&#45;1b&#45;in -->
<g id="edge13" class="edge">
<title>nid&#45;03&#45;ampout&#45;&gt;nid&#45;1b&#45;in</title>
<path fill="none" stroke="gray" stroke-dasharray="5,2" d="M478.97,-41C535.09,-41 669.2,-41 756.4,-41"/>
<polygon fill="gray" stroke="gray" points="756.53,-44.5 766.53,-41 756.53,-37.5 756.53,-44.5"/>
</g>
<!-- nid&#45;03&#45;ampout&#45;&gt;nid&#45;21&#45;in -->
<g id="edge16" class="edge">
<title>nid&#45;03&#45;ampout&#45;&gt;nid&#45;21&#45;in</title>
<path fill="none" stroke="gray" stroke-dasharray="5,2" d="M471.14,-44.52C519.4,-53.82 652.87,-79.53 744.52,-97.19"/>
<polygon fill="gray" stroke="gray" points="743.88,-100.63 754.36,-99.08 745.2,-93.75 743.88,-100.63"/>
</g>
<!-- nid&#45;06 -->
<g id="node5" class="node">
<title>nid&#45;06</title>
<ellipse fill="none" stroke="blue" cx="82.57" cy="-194" rx="66.65" ry="25.41"/>
<text text-anchor="middle" x="82.57" y="-196.8" font-family="Times,serif" font-size="14.00">0x06</text>
<text text-anchor="middle" x="82.57" y="-182.8" font-family="Times,serif" font-size="14.00">Stereo Digital</text>
</g>
<!-- nid&#45;1e&#45;in -->
<g id="node26" class="node">
<title>nid&#45;1e&#45;in</title>
<polygon fill="none" stroke="green" points="499.02,-219 404.73,-219 404.73,-169 499.02,-169 499.02,-219"/>
<text text-anchor="middle" x="451.88" y="-203.8" font-family="Times,serif" font-size="14.00">0x1e</text>
<text text-anchor="middle" x="451.88" y="-189.8" font-family="Times,serif" font-size="14.00">Stereo Digital</text>
<text text-anchor="middle" x="451.88" y="-175.8" font-family="Times,serif" font-size="14.00">OUT Detect</text>
</g>
<!-- nid&#45;06&#45;&gt;nid&#45;1e&#45;in -->
<g id="edge14" class="edge">
<title>nid&#45;06&#45;&gt;nid&#45;1e&#45;in</title>
<path fill="none" stroke="#333333" d="M149.24,-194C219.07,-194 328.36,-194 394.44,-194"/>
<polygon fill="#333333" stroke="#333333" points="394.66,-197.5 404.66,-194 394.66,-190.5 394.66,-197.5"/>
</g>
<!-- nid&#45;07 -->
<g id="node6" class="node">
<title>nid&#45;07</title>
<ellipse fill="none" stroke="red" cx="1474.49" cy="-982" rx="36.71" ry="25.41"/>
<text text-anchor="middle" x="1474.49" y="-984.8" font-family="Times,serif" font-size="14.00">0x07</text>
<text text-anchor="middle" x="1474.49" y="-970.8" font-family="Times,serif" font-size="14.00">Stereo</text>
</g>
<!-- nid&#45;07&#45;ampin -->
<g id="node7" class="node">
<title>nid&#45;07&#45;ampin</title>
<polygon fill="none" stroke="#c8c8c8" points="1206.62,-982 1166.12,-1000 1166.12,-964 1206.62,-982"/>
</g>
<!-- nid&#45;07&#45;ampin&#45;&gt;nid&#45;07 -->
<g id="edge3" class="edge">
<title>nid&#45;07&#45;ampin&#45;&gt;nid&#45;07</title>
<path fill="none" stroke="#c8c8c8" d="M1206.87,-982C1258.08,-982 1371.63,-982 1432.72,-982"/>
<polygon fill="#c8c8c8" stroke="#c8c8c8" points="1432.74,-983.75 1437.74,-982 1432.74,-980.25 1432.74,-983.75"/>
</g>
<!-- nid&#45;24 -->
<g id="node8" class="node">
<title>nid&#45;24</title>
<polygon fill="none" stroke="black" points="891.81,-1018 806.17,-1018 784.14,-946 869.78,-946 891.81,-1018"/>
<text text-anchor="middle" x="837.98" y="-984.8" font-family="Times,serif" font-size="14.00">0x24</text>
<text text-anchor="middle" x="837.98" y="-970.8" font-family="Times,serif" font-size="14.00">Stereo</text>
</g>
<!-- nid&#45;24&#45;&gt;nid&#45;07&#45;ampin -->
<g id="edge4" class="edge">
<title>nid&#45;24&#45;&gt;nid&#45;07&#45;ampin</title>
<path fill="none" stroke="#333333" d="M880.97,-982C953.36,-982 1099.32,-982 1155.68,-982"/>
<polygon fill="#333333" stroke="#333333" points="1156,-985.5 1166,-982 1156,-978.5 1156,-985.5"/>
</g>
<!-- nid&#45;08 -->
<g id="node9" class="node">
<title>nid&#45;08</title>
<ellipse fill="none" stroke="red" cx="1763.7" cy="-745" rx="36.71" ry="25.41"/>
<text text-anchor="middle" x="1763.7" y="-747.8" font-family="Times,serif" font-size="14.00">0x08</text>
<text text-anchor="middle" x="1763.7" y="-733.8" font-family="Times,serif" font-size="14.00">Stereo</text>
</g>
<!-- nid&#45;08&#45;ampin -->
<g id="node10" class="node">
<title>nid&#45;08&#45;ampin</title>
<polygon fill="none" stroke="#c8c8c8" points="1501.49,-745 1460.99,-763 1460.99,-727 1501.49,-745"/>
</g>
<!-- nid&#45;08&#45;ampin&#45;&gt;nid&#45;08 -->
<g id="edge5" class="edge">
<title>nid&#45;08&#45;ampin&#45;&gt;nid&#45;08</title>
<path fill="none" stroke="#c8c8c8" d="M1501.74,-745C1551.88,-745 1661.6,-745 1721.57,-745"/>
<polygon fill="#c8c8c8" stroke="#c8c8c8" points="1721.86,-746.75 1726.86,-745 1721.86,-743.25 1721.86,-746.75"/>
</g>
<!-- nid&#45;23 -->
<g id="node11" class="node">
<title>nid&#45;23</title>
<polygon fill="none" stroke="black" points="1221.65,-745 1200.63,-774.29 1158.6,-774.29 1137.58,-745 1158.6,-715.71 1200.63,-715.71 1221.65,-745"/>
<text text-anchor="middle" x="1179.62" y="-747.8" font-family="Times,serif" font-size="14.00">0x23</text>
<text text-anchor="middle" x="1179.62" y="-733.8" font-family="Times,serif" font-size="14.00">Stereo</text>
</g>
<!-- nid&#45;23&#45;&gt;nid&#45;08&#45;ampin -->
<g id="edge6" class="edge">
<title>nid&#45;23&#45;&gt;nid&#45;08&#45;ampin</title>
<path fill="none" stroke="#333333" d="M1221.96,-745C1284.57,-745 1401.35,-745 1450.62,-745"/>
<polygon fill="#333333" stroke="#333333" points="1450.85,-748.5 1460.85,-745 1450.85,-741.5 1450.85,-748.5"/>
</g>
<!-- nid&#45;09 -->
<g id="node12" class="node">
<title>nid&#45;09</title>
<ellipse fill="none" stroke="red" cx="1763.7" cy="-398" rx="36.71" ry="25.41"/>
<text text-anchor="middle" x="1763.7" y="-400.8" font-family="Times,serif" font-size="14.00">0x09</text>
<text text-anchor="middle" x="1763.7" y="-386.8" font-family="Times,serif" font-size="14.00">Stereo</text>
</g>
<!-- nid&#45;09&#45;ampin -->
<g id="node13" class="node">
<title>nid&#45;09&#45;ampin</title>
<polygon fill="none" stroke="#c8c8c8" points="1501.49,-398 1460.99,-416 1460.99,-380 1501.49,-398"/>
</g>
<!-- nid&#45;09&#45;ampin&#45;&gt;nid&#45;09 -->
<g id="edge7" class="edge">
<title>nid&#45;09&#45;ampin&#45;&gt;nid&#45;09</title>
<path fill="none" stroke="#c8c8c8" d="M1501.74,-398C1551.88,-398 1661.6,-398 1721.57,-398"/>
<polygon fill="#c8c8c8" stroke="#c8c8c8" points="1721.86,-399.75 1726.86,-398 1721.86,-396.25 1721.86,-399.75"/>
</g>
<!-- nid&#45;22 -->
<g id="node14" class="node">
<title>nid&#45;22</title>
<polygon fill="none" stroke="black" points="1221.65,-398 1200.63,-427.29 1158.6,-427.29 1137.58,-398 1158.6,-368.71 1200.63,-368.71 1221.65,-398"/>
<text text-anchor="middle" x="1179.62" y="-400.8" font-family="Times,serif" font-size="14.00">0x22</text>
<text text-anchor="middle" x="1179.62" y="-386.8" font-family="Times,serif" font-size="14.00">Stereo</text>
</g>
<!-- nid&#45;22&#45;&gt;nid&#45;09&#45;ampin -->
<g id="edge8" class="edge">
<title>nid&#45;22&#45;&gt;nid&#45;09&#45;ampin</title>
<path fill="none" stroke="#333333" d="M1221.96,-398C1284.57,-398 1401.35,-398 1450.62,-398"/>
<polygon fill="#333333" stroke="#333333" points="1450.85,-401.5 1460.85,-398 1450.85,-394.5 1450.85,-401.5"/>
</g>
<!-- nid&#45;12&#45;out -->
<g id="node15" class="node">
<title>nid&#45;12&#45;out</title>
<polygon fill="none" stroke="green" points="478.88,-925 424.88,-925 424.88,-875 478.88,-875 478.88,-925"/>
<text text-anchor="middle" x="451.88" y="-909.8" font-family="Times,serif" font-size="14.00">0x12</text>
<text text-anchor="middle" x="451.88" y="-895.8" font-family="Times,serif" font-size="14.00">Stereo</text>
<text text-anchor="middle" x="451.88" y="-881.8" font-family="Times,serif" font-size="14.00">IN</text>
</g>
<!-- nid&#45;12&#45;out&#45;&gt;nid&#45;24 -->
<g id="edge39" class="edge">
<title>nid&#45;12&#45;out&#45;&gt;nid&#45;24</title>
<path fill="none" stroke="gray" stroke-dasharray="5,2" d="M478.97,-905.57C540.96,-918.8 698.08,-952.35 782.07,-970.28"/>
<polygon fill="gray" stroke="gray" points="781.42,-973.72 791.93,-972.38 782.88,-966.87 781.42,-973.72"/>
</g>
<!-- nid&#45;23&#45;ampin&#45;18 -->
<g id="node38" class="node">
<title>nid&#45;23&#45;ampin&#45;18</title>
<polygon fill="none" stroke="#c8c8c8" points="918.74,-900 797.6,-922 797.6,-878 918.74,-900"/>
<text text-anchor="middle" x="837.98" y="-895.8" font-family="Times,serif" font-size="14.00">5 (0x12)</text>
</g>
<!-- nid&#45;12&#45;out&#45;&gt;nid&#45;23&#45;ampin&#45;18 -->
<g id="edge38" class="edge">
<title>nid&#45;12&#45;out&#45;&gt;nid&#45;23&#45;ampin&#45;18</title>
<path fill="none" stroke="#333333" d="M478.97,-900C542.29,-900 704.88,-900 787.37,-900"/>
<polygon fill="#333333" stroke="#333333" points="787.51,-903.5 797.51,-900 787.51,-896.5 787.51,-903.5"/>
</g>
<!-- nid&#45;13&#45;out -->
<g id="node16" class="node">
<title>nid&#45;13&#45;out</title>
<polygon fill="none" stroke="green" points="538.84,-1014 364.92,-1014 364.92,-950 538.84,-950 538.84,-1014"/>
<text text-anchor="middle" x="451.88" y="-998.8" font-family="Times,serif" font-size="14.00">0x13</text>
<text text-anchor="middle" x="451.88" y="-984.8" font-family="Times,serif" font-size="14.00">[None] Line Out at Ext N/A</text>
<text text-anchor="middle" x="451.88" y="-970.8" font-family="Times,serif" font-size="14.00">Stereo</text>
<text text-anchor="middle" x="451.88" y="-956.8" font-family="Times,serif" font-size="14.00">IN</text>
</g>
<!-- nid&#45;13&#45;out&#45;&gt;nid&#45;24 -->
<g id="edge40" class="edge">
<title>nid&#45;13&#45;out&#45;&gt;nid&#45;24</title>
<path fill="none" stroke="gray" stroke-dasharray="5,2" d="M539.08,-982C614.61,-982 721.91,-982 785,-982"/>
<polygon fill="gray" stroke="gray" points="785.11,-985.5 795.11,-982 785.11,-978.5 785.11,-985.5"/>
</g>
<!-- nid&#45;18&#45;out -->
<g id="node18" class="node">
<title>nid&#45;18&#45;out</title>
<polygon fill="none" stroke="green" points="487.18,-591 416.57,-591 416.57,-541 487.18,-541 487.18,-591"/>
<text text-anchor="middle" x="451.88" y="-575.8" font-family="Times,serif" font-size="14.00">0x18</text>
<text text-anchor="middle" x="451.88" y="-561.8" font-family="Times,serif" font-size="14.00">Stereo</text>
<text text-anchor="middle" x="451.88" y="-547.8" font-family="Times,serif" font-size="14.00">IN Detect</text>
</g>
<!-- nid&#45;22&#45;ampin&#45;24 -->
<g id="node28" class="node">
<title>nid&#45;22&#45;ampin&#45;24</title>
<polygon fill="none" stroke="#c8c8c8" points="918.74,-398 797.6,-420 797.6,-376 918.74,-398"/>
<text text-anchor="middle" x="837.98" y="-393.8" font-family="Times,serif" font-size="14.00">0 (0x18)</text>
</g>
<!-- nid&#45;18&#45;out&#45;&gt;nid&#45;22&#45;ampin&#45;24 -->
<g id="edge22" class="edge">
<title>nid&#45;18&#45;out&#45;&gt;nid&#45;22&#45;ampin&#45;24</title>
<path fill="none" stroke="#333333" d="M487.61,-548.33C542.05,-520.98 651.11,-467.52 746.6,-429 759.85,-423.66 774.41,-418.4 787.9,-413.78"/>
<polygon fill="#333333" stroke="#333333" points="789.15,-417.05 797.5,-410.53 786.9,-410.42 789.15,-417.05"/>
</g>
<!-- nid&#45;23&#45;ampin&#45;24 -->
<g id="node33" class="node">
<title>nid&#45;23&#45;ampin&#45;24</title>
<polygon fill="none" stroke="#c8c8c8" points="918.74,-714 797.6,-736 797.6,-692 918.74,-714"/>
<text text-anchor="middle" x="837.98" y="-709.8" font-family="Times,serif" font-size="14.00">0 (0x18)</text>
</g>
<!-- nid&#45;18&#45;out&#45;&gt;nid&#45;23&#45;ampin&#45;24 -->
<g id="edge33" class="edge">
<title>nid&#45;18&#45;out&#45;&gt;nid&#45;23&#45;ampin&#45;24</title>
<path fill="none" stroke="#333333" d="M487.48,-580.42C542.19,-603.07 652.15,-648.01 746.6,-683 759.87,-687.91 774.33,-693 787.72,-697.59"/>
<polygon fill="#333333" stroke="#333333" points="786.64,-700.92 797.24,-700.83 788.9,-694.29 786.64,-700.92"/>
</g>
<!-- nid&#45;19&#45;out -->
<g id="node19" class="node">
<title>nid&#45;19&#45;out</title>
<polygon fill="none" stroke="green" points="487.18,-389 416.57,-389 416.57,-339 487.18,-339 487.18,-389"/>
<text text-anchor="middle" x="451.88" y="-373.8" font-family="Times,serif" font-size="14.00">0x19</text>
<text text-anchor="middle" x="451.88" y="-359.8" font-family="Times,serif" font-size="14.00">Stereo</text>
<text text-anchor="middle" x="451.88" y="-345.8" font-family="Times,serif" font-size="14.00">IN Detect</text>
</g>
<!-- nid&#45;22&#45;ampin&#45;25 -->
<g id="node29" class="node">
<title>nid&#45;22&#45;ampin&#45;25</title>
<polygon fill="none" stroke="#c8c8c8" points="918.74,-336 797.6,-358 797.6,-314 918.74,-336"/>
<text text-anchor="middle" x="837.98" y="-331.8" font-family="Times,serif" font-size="14.00">1 (0x19)</text>
</g>
<!-- nid&#45;19&#45;out&#45;&gt;nid&#45;22&#45;ampin&#45;25 -->
<g id="edge23" class="edge">
<title>nid&#45;19&#45;out&#45;&gt;nid&#45;22&#45;ampin&#45;25</title>
<path fill="none" stroke="#333333" d="M487.3,-361.49C555.5,-356.52 708.01,-345.4 787.17,-339.63"/>
<polygon fill="#333333" stroke="#333333" points="787.65,-343.11 797.37,-338.89 787.14,-336.12 787.65,-343.11"/>
</g>
<!-- nid&#45;23&#45;ampin&#45;25 -->
<g id="node34" class="node">
<title>nid&#45;23&#45;ampin&#45;25</title>
<polygon fill="none" stroke="#c8c8c8" points="918.74,-652 797.6,-674 797.6,-630 918.74,-652"/>
<text text-anchor="middle" x="837.98" y="-647.8" font-family="Times,serif" font-size="14.00">1 (0x19)</text>
</g>
<!-- nid&#45;19&#45;out&#45;&gt;nid&#45;23&#45;ampin&#45;25 -->
<g id="edge34" class="edge">
<title>nid&#45;19&#45;out&#45;&gt;nid&#45;23&#45;ampin&#45;25</title>
<path fill="none" stroke="#333333" d="M475.13,-389.16C521.11,-439.76 631.95,-554.65 746.6,-621 759.2,-628.29 773.77,-634.22 787.49,-638.87"/>
<polygon fill="#333333" stroke="#333333" points="786.69,-642.29 797.28,-642.03 788.84,-635.63 786.69,-642.29"/>
</g>
<!-- nid&#45;1a&#45;out -->
<g id="node20" class="node">
<title>nid&#45;1a&#45;out</title>
<polygon fill="none" stroke="green" points="487.18,-307 416.57,-307 416.57,-257 487.18,-257 487.18,-307"/>
<text text-anchor="middle" x="451.88" y="-291.8" font-family="Times,serif" font-size="14.00">0x1a</text>
<text text-anchor="middle" x="451.88" y="-277.8" font-family="Times,serif" font-size="14.00">Stereo</text>
<text text-anchor="middle" x="451.88" y="-263.8" font-family="Times,serif" font-size="14.00">IN Detect</text>
</g>
<!-- nid&#45;22&#45;ampin&#45;26 -->
<g id="node30" class="node">
<title>nid&#45;22&#45;ampin&#45;26</title>
<polygon fill="none" stroke="#c8c8c8" points="917.76,-274 798.09,-296 798.09,-252 917.76,-274"/>
<text text-anchor="middle" x="837.98" y="-269.8" font-family="Times,serif" font-size="14.00">2 (0x1a)</text>
</g>
<!-- nid&#45;1a&#45;out&#45;&gt;nid&#45;22&#45;ampin&#45;26 -->
<g id="edge24" class="edge">
<title>nid&#45;1a&#45;out&#45;&gt;nid&#45;22&#45;ampin&#45;26</title>
<path fill="none" stroke="#333333" d="M487.3,-281.28C555.68,-279.86 708.8,-276.67 787.78,-275.02"/>
<polygon fill="#333333" stroke="#333333" points="788.03,-278.52 797.95,-274.81 787.88,-271.52 788.03,-278.52"/>
</g>
<!-- nid&#45;23&#45;ampin&#45;26 -->
<g id="node35" class="node">
<title>nid&#45;23&#45;ampin&#45;26</title>
<polygon fill="none" stroke="#c8c8c8" points="917.76,-590 798.09,-612 798.09,-568 917.76,-590"/>
<text text-anchor="middle" x="837.98" y="-585.8" font-family="Times,serif" font-size="14.00">2 (0x1a)</text>
</g>
<!-- nid&#45;1a&#45;out&#45;&gt;nid&#45;23&#45;ampin&#45;26 -->
<g id="edge35" class="edge">
<title>nid&#45;1a&#45;out&#45;&gt;nid&#45;23&#45;ampin&#45;26</title>
<path fill="none" stroke="#333333" d="M487.28,-294.56C505.88,-302.29 528.65,-313.34 546.6,-327 654.16,-408.81 635.57,-478.99 746.6,-556 759.14,-564.69 774.18,-571.5 788.37,-576.67"/>
<polygon fill="#333333" stroke="#333333" points="787.41,-580.04 798.01,-579.99 789.69,-573.42 787.41,-580.04"/>
</g>
<!-- nid&#45;1b&#45;ampout -->
<g id="node22" class="node">
<title>nid&#45;1b&#45;ampout</title>
<polygon fill="none" stroke="#c8c8c8" points="1206.62,-41 1166.12,-59 1166.12,-23 1206.62,-41"/>
</g>
<!-- nid&#45;1b&#45;in&#45;&gt;nid&#45;1b&#45;ampout -->
<g id="edge10" class="edge">
<title>nid&#45;1b&#45;in&#45;&gt;nid&#45;1b&#45;ampout</title>
<path fill="none" stroke="#c8c8c8" d="M909.76,-41C989.72,-41 1114.7,-41 1160.78,-41"/>
<polygon fill="#c8c8c8" stroke="#c8c8c8" points="1161,-42.75 1166,-41 1161,-39.25 1161,-42.75"/>
</g>
<!-- nid&#45;1b&#45;out -->
<g id="node23" class="node">
<title>nid&#45;1b&#45;out</title>
<polygon fill="none" stroke="green" points="523.26,-835 380.49,-835 380.49,-785 523.26,-785 523.26,-835"/>
<text text-anchor="middle" x="451.88" y="-819.8" font-family="Times,serif" font-size="14.00">0x1b</text>
<text text-anchor="middle" x="451.88" y="-805.8" font-family="Times,serif" font-size="14.00">Stereo</text>
<text text-anchor="middle" x="451.88" y="-791.8" font-family="Times,serif" font-size="14.00">IN OUT EAPD Detect</text>
</g>
<!-- nid&#45;22&#45;ampin&#45;27 -->
<g id="node31" class="node">
<title>nid&#45;22&#45;ampin&#45;27</title>
<polygon fill="none" stroke="#c8c8c8" points="918.74,-522 797.6,-544 797.6,-500 918.74,-522"/>
<text text-anchor="middle" x="837.98" y="-517.8" font-family="Times,serif" font-size="14.00">3 (0x1b)</text>
</g>
<!-- nid&#45;1b&#45;out&#45;&gt;nid&#45;22&#45;ampin&#45;27 -->
<g id="edge25" class="edge">
<title>nid&#45;1b&#45;out&#45;&gt;nid&#45;22&#45;ampin&#45;27</title>
<path fill="none" stroke="#333333" d="M489.2,-784.7C506.87,-772.03 528.22,-756.19 546.6,-741 639.95,-663.88 643.58,-619.61 746.6,-556 759.12,-548.28 773.66,-541.85 787.38,-536.75"/>
<polygon fill="#333333" stroke="#333333" points="788.93,-539.91 797.18,-533.26 786.59,-533.31 788.93,-539.91"/>
</g>
<!-- nid&#45;23&#45;ampin&#45;27 -->
<g id="node36" class="node">
<title>nid&#45;23&#45;ampin&#45;27</title>
<polygon fill="none" stroke="#c8c8c8" points="918.74,-838 797.6,-860 797.6,-816 918.74,-838"/>
<text text-anchor="middle" x="837.98" y="-833.8" font-family="Times,serif" font-size="14.00">3 (0x1b)</text>
</g>
<!-- nid&#45;1b&#45;out&#45;&gt;nid&#45;23&#45;ampin&#45;27 -->
<g id="edge36" class="edge">
<title>nid&#45;1b&#45;out&#45;&gt;nid&#45;23&#45;ampin&#45;27</title>
<path fill="none" stroke="#333333" d="M523.33,-815.14C599.8,-820.71 719.98,-829.47 787.2,-834.37"/>
<polygon fill="#333333" stroke="#333333" points="787.29,-837.89 797.52,-835.12 787.8,-830.91 787.29,-837.89"/>
</g>
<!-- nid&#45;1b&#45;ampin -->
<g id="node24" class="node">
<title>nid&#45;1b&#45;ampin</title>
<polygon fill="none" stroke="#0000ff" points="109.57,-810 69.07,-828 69.07,-792 109.57,-810"/>
</g>
<!-- nid&#45;1b&#45;ampin&#45;&gt;nid&#45;1b&#45;out -->
<g id="edge11" class="edge">
<title>nid&#45;1b&#45;ampin&#45;&gt;nid&#45;1b&#45;out</title>
<path fill="none" stroke="#0000ff" d="M109.69,-810C164.3,-810 292.32,-810 375.08,-810"/>
<polygon fill="#0000ff" stroke="#0000ff" points="375.46,-811.75 380.46,-810 375.46,-808.25 375.46,-811.75"/>
</g>
<!-- nid&#45;1d&#45;out -->
<g id="node25" class="node">
<title>nid&#45;1d&#45;out</title>
<polygon fill="none" stroke="green" points="478.88,-729 424.88,-729 424.88,-679 478.88,-679 478.88,-729"/>
<text text-anchor="middle" x="451.88" y="-713.8" font-family="Times,serif" font-size="14.00">0x1d</text>
<text text-anchor="middle" x="451.88" y="-699.8" font-family="Times,serif" font-size="14.00">Mono</text>
<text text-anchor="middle" x="451.88" y="-685.8" font-family="Times,serif" font-size="14.00">IN</text>
</g>
<!-- nid&#45;22&#45;ampin&#45;29 -->
<g id="node32" class="node">
<title>nid&#45;22&#45;ampin&#45;29</title>
<polygon fill="none" stroke="#c8c8c8" points="918.74,-460 797.6,-482 797.6,-438 918.74,-460"/>
<text text-anchor="middle" x="837.98" y="-455.8" font-family="Times,serif" font-size="14.00">4 (0x1d)</text>
</g>
<!-- nid&#45;1d&#45;out&#45;&gt;nid&#45;22&#45;ampin&#45;29 -->
<g id="edge26" class="edge">
<title>nid&#45;1d&#45;out&#45;&gt;nid&#45;22&#45;ampin&#45;29</title>
<path fill="none" stroke="#333333" d="M479.03,-680.84C528.3,-638.2 639.55,-546.59 746.6,-491 759.4,-484.36 773.92,-478.65 787.52,-474.01"/>
<polygon fill="#333333" stroke="#333333" points="788.82,-477.27 797.23,-470.83 786.64,-470.62 788.82,-477.27"/>
</g>
<!-- nid&#45;23&#45;ampin&#45;29 -->
<g id="node37" class="node">
<title>nid&#45;23&#45;ampin&#45;29</title>
<polygon fill="none" stroke="#c8c8c8" points="918.74,-776 797.6,-798 797.6,-754 918.74,-776"/>
<text text-anchor="middle" x="837.98" y="-771.8" font-family="Times,serif" font-size="14.00">4 (0x1d)</text>
</g>
<!-- nid&#45;1d&#45;out&#45;&gt;nid&#45;23&#45;ampin&#45;29 -->
<g id="edge37" class="edge">
<title>nid&#45;1d&#45;out&#45;&gt;nid&#45;23&#45;ampin&#45;29</title>
<path fill="none" stroke="#333333" d="M478.97,-708.89C542.35,-720.77 705.21,-751.3 787.63,-766.75"/>
<polygon fill="#333333" stroke="#333333" points="787.03,-770.2 797.51,-768.6 788.32,-763.32 787.03,-770.2"/>
</g>
<!-- nid&#45;22&#45;ampin&#45;24&#45;&gt;nid&#45;22 -->
<g id="edge17" class="edge">
<title>nid&#45;22&#45;ampin&#45;24&#45;&gt;nid&#45;22</title>
<path fill="none" stroke="#c8c8c8" d="M919.04,-398C985.34,-398 1077.27,-398 1132.07,-398"/>
<polygon fill="#c8c8c8" stroke="#c8c8c8" points="1132.25,-399.75 1137.25,-398 1132.25,-396.25 1132.25,-399.75"/>
</g>
<!-- nid&#45;22&#45;ampin&#45;25&#45;&gt;nid&#45;22 -->
<g id="edge18" class="edge">
<title>nid&#45;22&#45;ampin&#45;25&#45;&gt;nid&#45;22</title>
<path fill="none" stroke="#c8c8c8" d="M878.94,-343.29C943.79,-355.13 1071.34,-378.42 1137.15,-390.43"/>
<polygon fill="#c8c8c8" stroke="#c8c8c8" points="1136.93,-392.17 1142.17,-391.35 1137.56,-388.73 1136.93,-392.17"/>
</g>
<!-- nid&#45;22&#45;ampin&#45;26&#45;&gt;nid&#45;22 -->
<g id="edge19" class="edge">
<title>nid&#45;22&#45;ampin&#45;26&#45;&gt;nid&#45;22</title>
<path fill="none" stroke="#c8c8c8" d="M867.13,-283.44C885,-289.49 908.58,-297.56 929.35,-305 1004.82,-332.02 1092.52,-365.14 1141.18,-383.68"/>
<polygon fill="#c8c8c8" stroke="#c8c8c8" points="1140.76,-385.39 1146.06,-385.54 1142.01,-382.12 1140.76,-385.39"/>
</g>
<!-- nid&#45;22&#45;ampin&#45;27&#45;&gt;nid&#45;22 -->
<g id="edge20" class="edge">
<title>nid&#45;22&#45;ampin&#45;27&#45;&gt;nid&#45;22</title>
<path fill="none" stroke="#c8c8c8" d="M867.13,-512.56C885,-506.51 908.58,-498.44 929.35,-491 1004.82,-463.98 1092.52,-430.86 1141.18,-412.32"/>
<polygon fill="#c8c8c8" stroke="#c8c8c8" points="1142.01,-413.88 1146.06,-410.46 1140.76,-410.61 1142.01,-413.88"/>
</g>
<!-- nid&#45;22&#45;ampin&#45;29&#45;&gt;nid&#45;22 -->
<g id="edge21" class="edge">
<title>nid&#45;22&#45;ampin&#45;29&#45;&gt;nid&#45;22</title>
<path fill="none" stroke="#c8c8c8" d="M878.94,-452.71C943.79,-440.87 1071.34,-417.58 1137.15,-405.57"/>
<polygon fill="#c8c8c8" stroke="#c8c8c8" points="1137.56,-407.27 1142.17,-404.65 1136.93,-403.83 1137.56,-407.27"/>
</g>
<!-- nid&#45;23&#45;ampin&#45;24&#45;&gt;nid&#45;23 -->
<g id="edge27" class="edge">
<title>nid&#45;23&#45;ampin&#45;24&#45;&gt;nid&#45;23</title>
<path fill="none" stroke="#c8c8c8" d="M892.42,-718.88C959.29,-724.98 1072.54,-735.32 1134.64,-740.99"/>
<polygon fill="#c8c8c8" stroke="#c8c8c8" points="1134.61,-742.74 1139.75,-741.45 1134.93,-739.26 1134.61,-742.74"/>
</g>
<!-- nid&#45;23&#45;ampin&#45;25&#45;&gt;nid&#45;23 -->
<g id="edge28" class="edge">
<title>nid&#45;23&#45;ampin&#45;25&#45;&gt;nid&#45;23</title>
<path fill="none" stroke="#c8c8c8" d="M870.93,-660.75C933.3,-677.83 1071.06,-715.55 1139.07,-734.17"/>
<polygon fill="#c8c8c8" stroke="#c8c8c8" points="1138.95,-735.95 1144.24,-735.59 1139.88,-732.58 1138.95,-735.95"/>
</g>
<!-- nid&#45;23&#45;ampin&#45;26&#45;&gt;nid&#45;23 -->
<g id="edge29" class="edge">
<title>nid&#45;23&#45;ampin&#45;26&#45;&gt;nid&#45;23</title>
<path fill="none" stroke="#c8c8c8" d="M868.65,-599.09C886.46,-604.82 909.46,-612.68 929.35,-621 1008.19,-653.96 1097.02,-700.54 1144.44,-726.2"/>
<polygon fill="#c8c8c8" stroke="#c8c8c8" points="1143.67,-727.77 1148.9,-728.62 1145.34,-724.7 1143.67,-727.77"/>
</g>
<!-- nid&#45;23&#45;ampin&#45;27&#45;&gt;nid&#45;23 -->
<g id="edge30" class="edge">
<title>nid&#45;23&#45;ampin&#45;27&#45;&gt;nid&#45;23</title>
<path fill="none" stroke="#c8c8c8" d="M870.93,-829.25C933.3,-812.17 1071.06,-774.45 1139.07,-755.83"/>
<polygon fill="#c8c8c8" stroke="#c8c8c8" points="1139.88,-757.42 1144.24,-754.41 1138.95,-754.05 1139.88,-757.42"/>
</g>
<!-- nid&#45;23&#45;ampin&#45;29&#45;&gt;nid&#45;23 -->
<g id="edge31" class="edge">
<title>nid&#45;23&#45;ampin&#45;29&#45;&gt;nid&#45;23</title>
<path fill="none" stroke="#c8c8c8" d="M892.42,-771.12C959.29,-765.02 1072.54,-754.68 1134.64,-749.01"/>
<polygon fill="#c8c8c8" stroke="#c8c8c8" points="1134.93,-750.74 1139.75,-748.55 1134.61,-747.26 1134.93,-750.74"/>
</g>
<!-- nid&#45;23&#45;ampin&#45;18&#45;&gt;nid&#45;23 -->
<g id="edge32" class="edge">
<title>nid&#45;23&#45;ampin&#45;18&#45;&gt;nid&#45;23</title>
<path fill="none" stroke="#c8c8c8" d="M869.06,-890.78C886.82,-885.06 909.61,-877.25 929.35,-869 1008.19,-836.04 1097.02,-789.46 1144.44,-763.8"/>
<polygon fill="#c8c8c8" stroke="#c8c8c8" points="1145.34,-765.3 1148.9,-761.38 1143.67,-762.23 1145.34,-765.3"/>
</g>
</g>
</svg>
